<svg width="22" height="22" viewBox="0 0 22 22" fill="none" xmlns="http://www.w3.org/2000/svg">
<path d="M18.5261 13.1983C18.7779 13.1984 19.0229 13.1205 19.2239 12.9764C19.4249 12.8323 19.5709 12.6299 19.6399 12.3998L21.9557 4.70081C22.0048 4.53713 22.0132 4.36486 21.9803 4.19756C21.9474 4.03026 21.8741 3.87249 21.7662 3.73667C21.6582 3.60085 21.5185 3.49068 21.3581 3.41484C21.1977 3.33899 21.021 3.29954 20.8418 3.29959H5.52308L4.83414 0.819397C4.76894 0.584554 4.62374 0.376814 4.4212 0.228588C4.21866 0.0803615 3.97016 -1.43146e-05 3.71447 1.9122e-09H1.15788C0.85079 1.9122e-09 0.556279 0.115878 0.339135 0.322142C0.12199 0.528406 0 0.808161 0 1.09986C0 1.39156 0.12199 1.67132 0.339135 1.87758C0.556279 2.08385 0.85079 2.19972 1.15788 2.19972H2.82291L3.51763 4.67991V4.69091V4.70081L5.83339 12.3998L6.69717 15.684C6.12533 15.9249 5.63257 16.3079 5.27092 16.7927C4.90927 17.2775 4.69215 17.8461 4.64248 18.4384C4.59281 19.0307 4.71245 19.6248 4.98875 20.1579C5.26505 20.6909 5.68776 21.1433 6.21225 21.4671C6.73674 21.7908 7.34355 21.9741 7.96859 21.9974C8.59363 22.0208 9.21372 21.8834 9.76337 21.5998C10.313 21.3161 10.7718 20.8968 11.0914 20.3859C11.4109 19.8751 11.5793 19.2918 11.5788 18.6977C11.5749 18.3221 11.5029 17.95 11.3657 17.5978H14.1076C13.9705 17.95 13.8984 18.3221 13.8945 18.6977C13.8945 19.3503 14.0983 19.9882 14.48 20.5308C14.8616 21.0734 15.4041 21.4963 16.0389 21.7461C16.6736 21.9958 17.372 22.0612 18.0458 21.9338C18.7197 21.8065 19.3386 21.4923 19.8244 21.0308C20.3102 20.5694 20.641 19.9814 20.7751 19.3414C20.9091 18.7013 20.8403 18.0379 20.5774 17.435C20.3145 16.832 19.8693 16.3167 19.298 15.9542C18.7268 15.5916 18.0552 15.3981 17.3682 15.3981H9.00829L8.42935 13.1983H18.5261ZM19.3065 5.49931L17.653 10.9986H7.82031L6.16686 5.49931H19.3065ZM9.26303 18.6977C9.26303 18.9152 9.19512 19.1278 9.06789 19.3087C8.94066 19.4896 8.75982 19.6306 8.54825 19.7138C8.33667 19.797 8.10386 19.8188 7.87926 19.7764C7.65465 19.7339 7.44834 19.6292 7.2864 19.4754C7.12447 19.3216 7.01419 19.1256 6.96952 18.9122C6.92484 18.6989 6.94777 18.4777 7.03541 18.2768C7.12304 18.0758 7.27145 17.904 7.46186 17.7832C7.65228 17.6623 7.87614 17.5978 8.10515 17.5978C8.41224 17.5978 8.70675 17.7137 8.92389 17.9199C9.14104 18.1262 9.26303 18.406 9.26303 18.6977ZM17.3682 19.7975C17.1392 19.7975 16.9153 19.733 16.7249 19.6122C16.5345 19.4913 16.3861 19.3195 16.2984 19.1186C16.2108 18.9176 16.1879 18.6964 16.2325 18.4831C16.2772 18.2697 16.3875 18.0738 16.5494 17.9199C16.7114 17.7661 16.9177 17.6614 17.1423 17.6189C17.3669 17.5765 17.5997 17.5983 17.8113 17.6815C18.0228 17.7648 18.2037 17.9057 18.3309 18.0866C18.4581 18.2675 18.5261 18.4801 18.5261 18.6977C18.5261 18.9894 18.4041 19.2691 18.1869 19.4754C17.9698 19.6816 17.6753 19.7975 17.3682 19.7975Z" fill="#1F2A37"/>
</svg>
